<svg width="863" height="827" viewBox="0 0 863 827" fill="none" xmlns="http://www.w3.org/2000/svg">
<g id="undraw_laravel_and_vue_-59-tp 1" clip-path="url(#clip0_1_2)">
<path id="Vector" d="M862 702.714C862 746.069 672.811 826.714 434.5 826.714C196.189 826.714 0 751.069 0 707.714C0 664.36 196.189 669.714 434.5 669.714C672.811 669.714 862 659.36 862 702.714Z" fill="#3F3D56"/>
<path id="Vector_2" opacity="0.1" d="M862 702.714C862 746.069 672.811 826.714 434.5 826.714C196.189 826.714 0 751.069 0 707.714C0 664.36 196.189 669.714 434.5 669.714C672.811 669.714 862 659.36 862 702.714Z" fill="black"/>
<path id="Vector_3" d="M431.5 785.714C669.811 785.714 863 750.569 863 707.214C863 663.86 669.811 628.714 431.5 628.714C193.189 628.714 0 663.86 0 707.214C0 750.569 193.189 785.714 431.5 785.714Z" fill="#3F3D56"/>
<path id="Vector_4" d="M594.859 440.238V650.182L629.976 707.413L632.649 711.766H771.212L774.011 440.238H594.859Z" fill="#2F2E41"/>
<path id="Vector_5" opacity="0.1" d="M594.859 440.238V650.182L629.976 707.413L632.131 440.238H594.859Z" fill="black"/>
<path id="Vector_6" d="M260.348 434.639V644.583L225.231 701.814L222.558 706.167H83.994L81.195 434.639H260.348Z" fill="#2F2E41"/>
<path id="Vector_7" opacity="0.1" d="M260.348 434.639V644.583L225.231 701.814L223.075 434.639H260.348Z" fill="black"/>
<path id="Vector_8" d="M816 430.44V443.037H63V424.842L132.981 388.452H754.416L816 430.44Z" fill="#2F2E41"/>
<path id="Vector_9" opacity="0.1" d="M816 430.44V443.037H63V424.842L816 430.44Z" fill="black"/>
<path id="Vector_10" opacity="0.1" d="M170.771 493.424H137.18L123.184 483.626H186.167L170.771 493.424Z" fill="black"/>
<path id="Vector_11" opacity="0.1" d="M170.771 534.013H137.18L123.184 524.215H186.167L170.771 534.013Z" fill="black"/>
<path id="Vector_12" opacity="0.1" d="M170.771 591.398H137.18L123.184 581.6H186.167L170.771 591.398Z" fill="black"/>
<path id="Vector_13" opacity="0.1" d="M170.771 648.782H137.18L123.184 638.985H186.167L170.771 648.782Z" fill="black"/>
<path id="Vector_14" opacity="0.1" d="M684.435 499.022H718.026L732.022 489.225H669.039L684.435 499.022Z" fill="black"/>
<path id="Vector_15" opacity="0.1" d="M684.435 539.611H718.026L732.022 529.814H669.039L684.435 539.611Z" fill="black"/>
<path id="Vector_16" opacity="0.1" d="M684.435 596.996H718.026L732.022 587.199H669.039L684.435 596.996Z" fill="black"/>
<path id="Vector_17" opacity="0.1" d="M684.435 654.381H718.026L732.022 644.583H669.039L684.435 654.381Z" fill="black"/>
<path id="Vector_18" d="M532.516 353.427L527.847 383.234C527.847 383.234 504.863 395.444 521.024 395.804C537.184 396.163 613.319 395.804 613.319 395.804C613.319 395.804 628.043 395.804 604.7 382.875L600.031 351.631L532.516 353.427Z" fill="#3F3D56"/>
<path id="Vector_19" opacity="0.1" d="M517.773 395.48C520.911 392.942 524.285 390.71 527.847 388.812L532.516 359.004L600.031 359.068L604.7 388.452C608.536 390.432 612.152 392.812 615.489 395.551C618.487 394.867 621.763 392.325 604.7 382.875L600.031 351.631L532.516 353.427L527.847 383.234C527.847 383.234 508.534 393.496 517.773 395.48Z" fill="black"/>
<path id="Vector_20" d="M707.31 145.672H424.519C418.613 145.672 413.824 150.46 413.824 156.367V346.862C413.824 352.768 418.613 357.557 424.519 357.557H707.31C713.216 357.557 718.005 352.768 718.005 346.862V156.367C718.005 150.46 713.216 145.672 707.31 145.672Z" fill="#3F3D56"/>
<path id="Vector_21" d="M696.71 156H413V314.734H696.71V156Z" fill="#F2F2F2"/>
<path id="Vector_22" d="M565.914 153.752C566.906 153.752 567.71 152.948 567.71 151.957C567.71 150.965 566.906 150.161 565.914 150.161C564.923 150.161 564.119 150.965 564.119 151.957C564.119 152.948 564.923 153.752 565.914 153.752Z" fill="#F2F2F2"/>
<path id="Vector_23" d="M718.005 328.288V346.862C718.005 348.266 717.728 349.657 717.191 350.955C716.654 352.252 715.866 353.431 714.873 354.424C713.879 355.418 712.7 356.205 711.403 356.743C710.105 357.28 708.714 357.557 707.31 357.557H424.519C423.115 357.557 421.724 357.28 420.426 356.743C419.129 356.205 417.949 355.418 416.956 354.424C415.963 353.431 415.175 352.252 414.638 350.955C414.101 349.657 413.824 348.266 413.824 346.862V328.288H718.005Z" fill="#3F3D56"/>
<path id="Vector_24" d="M565.914 349.835C569.683 349.835 572.738 346.78 572.738 343.012C572.738 339.243 569.683 336.189 565.914 336.189C562.146 336.189 559.091 339.243 559.091 343.012C559.091 346.78 562.146 349.835 565.914 349.835Z" fill="#F2F2F2"/>
<path id="Vector_25" d="M555.281 415.196V418.788H362.071V415.915L362.337 415.196L367.099 402.268H551.331L555.281 415.196Z" fill="#3F3D56"/>
<path id="Vector_26" d="M629.635 411.681C629.283 413.185 627.954 414.773 624.952 416.274C614.178 421.661 592.272 414.837 592.272 414.837C592.272 414.837 575.393 411.964 575.393 404.423C575.866 404.098 576.361 403.804 576.872 403.543C581.402 401.146 596.42 395.233 623.05 403.793C625.012 404.409 626.764 405.557 628.112 407.11C628.709 407.697 629.158 408.418 629.423 409.212C629.688 410.007 629.761 410.853 629.635 411.681V411.681Z" fill="#3F3D56"/>
<path id="Vector_27" opacity="0.1" d="M629.635 411.681C616.448 416.733 604.694 417.111 592.631 408.732C586.547 404.509 581.02 403.464 576.872 403.543C581.402 401.146 596.42 395.233 623.05 403.793C625.012 404.409 626.764 405.557 628.112 407.11C628.709 407.697 629.158 408.418 629.423 409.212C629.688 410.007 629.761 410.853 629.635 411.681V411.681Z" fill="black"/>
<path id="Vector_28" d="M613.101 408.732C615.679 408.732 617.77 408.089 617.77 407.296C617.77 406.502 615.679 405.859 613.101 405.859C610.522 405.859 608.432 406.502 608.432 407.296C608.432 408.089 610.522 408.732 613.101 408.732Z" fill="#F2F2F2"/>
<path id="Vector_29" opacity="0.1" d="M555.281 415.196V418.788H362.071V415.915L362.337 415.196H555.281Z" fill="black"/>
<path id="Vector_30" d="M394.639 194.141C415.762 194.141 432.886 177.018 432.886 155.895C432.886 134.771 415.762 117.648 394.639 117.648C373.516 117.648 356.392 134.771 356.392 155.895C356.392 177.018 373.516 194.141 394.639 194.141Z" fill="#FFB9B9"/>
<path id="Vector_31" d="M366.457 175.018V235.407H428.86C428.86 235.407 420.808 185.083 424.834 169.985L366.457 175.018Z" fill="#FFB9B9"/>
<path id="Vector_32" d="M490.256 256.544C490.256 256.544 430.873 227.355 430.873 225.342C430.873 223.329 424.834 210.245 420.808 210.245C416.782 210.245 382.561 199.174 363.438 215.278L361.425 228.362L287.951 276.674L308.081 350.147C308.081 350.147 321.165 364.238 317.139 374.303C313.113 384.368 320.159 435.699 320.159 435.699L478.178 430.667V362.225C478.178 362.225 483.21 346.121 486.23 341.089C489.249 336.057 486.23 320.959 486.23 320.959L510.386 290.764C510.386 290.764 507.366 262.583 490.256 256.544Z" fill="#D0CDE1"/>
<path id="Vector_33" opacity="0.1" d="M290.467 301.333L294.996 276.674C294.996 276.674 268.828 390.407 271.847 403.491C274.867 416.576 297.009 436.706 300.029 437.712C303.048 438.719 331.23 351.154 331.23 351.154L290.467 301.333Z" fill="black"/>
<path id="Vector_34" d="M305.061 273.654L287.951 276.673C287.951 276.673 261.782 390.407 264.802 403.491C267.821 416.576 289.964 436.706 292.983 437.712C296.003 438.719 324.185 351.154 324.185 351.154L305.061 273.654Z" fill="#D0CDE1"/>
<path id="Vector_35" opacity="0.1" d="M495.791 307.371L504.347 290.764C504.347 290.764 516.425 404.498 508.373 415.569C500.321 426.641 468.47 430.784 468.47 430.784L468.113 348.134L495.791 307.371Z" fill="black"/>
<path id="Vector_36" d="M497.301 277.68L510.386 290.764C510.386 290.764 522.463 404.498 514.412 415.569C506.36 426.641 474.509 430.784 474.509 430.784L474.152 348.134L497.301 277.68Z" fill="#D0CDE1"/>
<path id="Vector_37" d="M302.042 450.796C302.042 450.796 272.854 439.725 267.821 460.861C262.789 481.998 279.899 576.608 279.899 576.608C279.899 576.608 290.97 648.069 298.016 650.082C305.061 652.095 336.263 653.101 341.295 644.043C346.327 634.984 326.198 542.387 326.198 542.387L442.951 540.374C442.951 540.374 435.905 620.894 431.879 627.939C427.853 634.984 427.853 659.14 431.879 659.14C435.905 659.14 480.191 657.127 483.21 651.088C486.23 645.049 503.34 509.173 503.34 509.173C503.34 509.173 517.431 461.868 501.327 464.887C485.223 467.907 302.042 450.796 302.042 450.796Z" fill="#3F3D56"/>
<path id="Vector_38" d="M474.152 647.062C474.152 647.062 484.217 640.017 489.249 647.062C494.282 654.108 496.295 662.16 474.152 674.238C452.009 686.316 434.899 683.296 434.899 681.283V652.095L474.152 647.062Z" fill="#2F2E41"/>
<path id="Vector_39" d="M300.029 644.043C300.029 644.043 289.964 636.997 284.931 644.043C279.899 651.088 277.886 659.14 300.029 671.218C322.172 683.296 339.282 680.277 339.282 678.264V649.075L300.029 644.043Z" fill="#2F2E41"/>
<path id="Vector_40" d="M394.887 107.669C391.078 107.537 387.275 108.079 383.654 109.27C380.846 110.399 378.164 111.818 375.651 113.504L358.765 124.005C357.332 124.625 356.114 125.656 355.266 126.968C354.418 128.279 353.977 129.813 353.999 131.375L351.889 147.176C351.357 151.164 350.866 155.429 352.651 159.034C354.141 162.044 356.982 164.103 359.319 166.515C363.058 170.39 365.574 175.28 366.555 180.576C367.763 187.173 366.99 195.118 372.211 199.328C375.038 201.608 378.891 202.039 382.517 202.251C392.431 202.83 402.377 202.447 412.217 201.108C413.782 200.991 415.307 200.564 416.705 199.851C418.48 198.801 419.597 196.948 420.642 195.169C424.412 188.75 428.299 181.92 428.258 174.475C428.238 170.792 427.295 166.837 429.064 163.606C429.998 162.232 431.013 160.915 432.101 159.661C434.291 156.584 434.717 152.631 435.074 148.871C436.214 136.862 435.022 127.724 426.172 119.265C417.91 111.368 406.155 107.742 394.887 107.669Z" fill="#2F2E41"/>
<path id="Vector_41" d="M300.937 569.703L267.346 740.458H284.141L316.333 572.503L300.937 569.703Z" fill="#2F2E41"/>
<path id="Vector_42" d="M408.708 583.7L429.703 779.648H443.699L431.102 578.101L408.708 583.7Z" fill="#2F2E41"/>
<path id="Vector_43" d="M466.093 578.101L495.485 708.267H509.481L481.489 575.302L466.093 578.101Z" fill="#2F2E41"/>
<path id="Vector_44" d="M354.123 578.101L349.924 681.674H361.121L369.519 578.101H354.123Z" fill="#2F2E41"/>
<path id="Vector_45" d="M277.143 551.508C277.143 551.508 254.749 401.748 317.732 397.549C380.716 393.35 470.292 397.549 470.292 397.549C470.292 397.549 522.078 393.35 506.682 551.508C506.682 551.508 520.678 597.696 394.712 593.497C268.745 589.298 277.143 551.508 277.143 551.508Z" fill="#6C63FF"/>
<path id="Vector_46" d="M231 296.3H145V397.128H231V296.3Z" fill="#3F3D56"/>
<path id="Vector_47" d="M217.655 311.946H158.345V381.482H217.655V311.946Z" fill="#F2F2F2"/>
<g id="reactsymbol">
<path id="Vector_48" d="M493 238.351C492.964 249.921 504.227 260.758 522.019 266.902C518.406 284.797 521.28 299.239 531.014 304.893C541.018 310.705 555.962 306.751 570.174 294.407C583.952 306.339 597.899 311.062 607.659 305.453C617.691 299.688 620.785 284.286 617.188 265.81C635.759 259.735 646.166 250.558 646.203 238.835C646.239 227.534 634.951 217.721 617.399 211.616C621.394 192.401 618.105 178.308 607.968 172.42C598.196 166.743 584.056 171.619 569.999 183.774C555.456 170.78 541.484 166.783 531.321 172.623C521.522 178.254 518.685 192.94 522.196 211.188C504.966 217.134 493.036 227.095 493 238.351Z" fill="white"/>
<path id="Vector_49" d="M612.934 217.329C611.487 216.828 610.029 216.363 608.558 215.935C608.805 214.945 609.034 213.95 609.245 212.95C612.611 196.867 610.484 183.895 603.095 179.603C596.01 175.488 584.389 179.719 572.633 189.884C571.474 190.888 570.342 191.921 569.235 192.982C568.499 192.272 567.75 191.575 566.988 190.893C554.735 179.944 542.434 175.309 535.026 179.566C527.922 183.648 525.783 195.831 528.72 211.092C529.012 212.604 529.343 214.107 529.711 215.602C527.967 216.092 526.282 216.614 524.671 217.17C510.25 222.146 501.026 229.988 501 238.152C500.973 246.585 510.822 255.073 525.81 260.249C527.025 260.666 528.25 261.054 529.485 261.41C529.079 263.018 528.717 264.636 528.401 266.264C525.508 281.243 527.693 293.15 534.752 297.252C542.043 301.487 554.317 297.196 566.288 286.799C567.234 285.977 568.183 285.107 569.135 284.191C570.326 285.347 571.548 286.47 572.802 287.558C584.334 297.545 595.742 301.599 602.821 297.531C610.132 293.33 612.544 280.553 609.514 264.989C609.283 263.801 609.015 262.588 608.709 261.35C609.571 261.099 610.415 260.838 611.242 260.568C626.856 255.45 637.031 247.127 637.057 238.582C637.083 230.389 627.613 222.435 612.934 217.329H612.934Z" fill="#53C1DE"/>
<path id="Vector_50" d="M610.619 255.25C609.875 255.494 609.111 255.729 608.332 255.958C606.448 250.056 604.164 244.29 601.497 238.699C604.098 233.2 606.328 227.532 608.172 221.735C609.562 222.143 610.912 222.572 612.213 223.024C624.79 227.398 632.449 233.831 632.434 238.768C632.417 244.028 624.101 250.83 610.62 255.25H610.619ZM604.997 266.305C606.336 273.187 606.511 279.406 605.594 284.264C604.77 288.63 603.131 291.536 601.112 292.696C596.817 295.165 587.657 291.91 577.795 283.369C576.665 282.39 575.528 281.347 574.384 280.239C578.522 275.687 582.347 270.861 585.834 265.794C592.036 265.29 598.196 264.361 604.271 263.011C604.544 264.132 604.786 265.23 604.997 266.305V266.305ZM548.404 292.101C544.21 293.567 540.873 293.599 538.86 292.43C534.576 289.941 532.823 280.38 535.296 267.571C535.591 266.057 535.927 264.553 536.304 263.057C542.345 264.374 548.468 265.28 554.631 265.769C558.188 270.841 562.074 275.673 566.265 280.236C565.418 281.05 564.551 281.843 563.665 282.614C558.371 287.212 553.071 290.469 548.404 292.101H548.404ZM528.895 254.959C522.268 252.671 516.798 249.706 513.053 246.479C509.688 243.578 507.993 240.704 508 238.375C508.016 233.421 515.422 227.125 527.755 222.869C529.303 222.337 530.865 221.851 532.442 221.41C534.253 227.284 536.45 233.031 539.019 238.615C536.382 244.261 534.121 250.076 532.251 256.021C531.124 255.695 530.005 255.341 528.895 254.959ZM535.616 210.199C533.1 197.122 534.829 187.27 539.11 184.81C543.67 182.189 553.723 185.979 564.302 195.431C564.978 196.036 565.657 196.668 566.337 197.323C562.147 201.829 558.26 206.608 554.702 211.629C548.594 212.157 542.526 213.081 536.537 214.393C536.195 213.003 535.888 211.605 535.616 210.198V210.199ZM594.259 224.876C592.936 222.574 591.564 220.302 590.143 218.059C594.483 218.62 598.639 219.362 602.542 220.266C601.276 224.238 599.81 228.144 598.15 231.968C596.9 229.579 595.603 227.214 594.259 224.876ZM570.399 201.489C573.219 204.583 575.881 207.817 578.375 211.18C573.019 210.91 567.658 210.892 562.294 211.125C564.949 207.648 567.667 204.418 570.399 201.489ZM546.238 224.764C544.896 227.075 543.609 229.416 542.376 231.788C540.696 227.768 539.26 223.816 538.09 220.001C541.974 219.145 546.116 218.448 550.431 217.922C548.98 220.17 547.583 222.45 546.238 224.764ZM550.424 259.511C546.214 259.041 542.031 258.355 537.891 257.455C539.105 253.58 540.597 249.553 542.339 245.458C543.562 247.838 544.84 250.189 546.174 252.51C547.535 254.877 548.951 257.211 550.424 259.511V259.511ZM570.324 276.066C567.579 273.085 564.842 269.788 562.169 266.243C564.774 266.354 567.427 266.414 570.129 266.423C572.902 266.431 575.64 266.379 578.343 266.266C575.839 269.668 573.163 272.938 570.324 276.066V276.066ZM598.163 245.425C599.88 249.338 601.392 253.338 602.694 257.408C598.501 258.337 594.263 259.045 589.996 259.532C591.441 257.256 592.841 254.953 594.195 252.622C595.571 250.252 596.894 247.854 598.163 245.425V245.425ZM589.169 249.702C587.096 253.276 584.909 256.779 582.608 260.213C578.57 260.489 574.398 260.624 570.147 260.611C565.914 260.597 561.795 260.452 557.83 260.183C555.492 256.745 553.287 253.222 551.214 249.614C549.152 246.028 547.229 242.368 545.444 238.633C547.246 234.911 549.187 231.261 551.266 227.683V227.684C553.342 224.107 555.552 220.614 557.896 217.202C561.943 216.909 566.092 216.762 570.286 216.775C574.499 216.789 578.653 216.963 582.697 217.284C584.994 220.702 587.168 224.198 589.219 227.772C591.281 231.353 593.225 234.998 595.05 238.707C593.221 242.441 591.261 246.106 589.169 249.702H589.169ZM601.364 184.834C605.912 187.476 607.65 198.078 604.744 211.964C604.553 212.869 604.346 213.77 604.123 214.667C598.134 213.29 592.06 212.31 585.941 211.735C582.45 206.687 578.623 201.879 574.485 197.345C575.507 196.366 576.553 195.413 577.623 194.485C587.695 185.775 597.094 182.353 601.364 184.834V184.834Z" fill="white"/>
<path id="Vector_51" d="M571.188 227C573.591 227.008 575.938 227.728 577.932 229.069C579.925 230.41 581.477 232.313 582.389 234.536C583.302 236.759 583.535 239.202 583.059 241.558C582.582 243.913 581.418 246.074 579.714 247.768C578.009 249.462 575.841 250.612 573.482 251.074C571.124 251.535 568.682 251.287 566.465 250.36C564.247 249.433 562.355 247.87 561.026 245.868C559.697 243.865 558.992 241.514 559 239.111C559.005 237.516 559.324 235.937 559.94 234.465C560.555 232.993 561.454 231.656 562.586 230.531C563.717 229.407 565.06 228.516 566.536 227.91C568.011 227.304 569.592 226.995 571.188 227" fill="#53C1DE"/>
</g>
<path id="Vector_52" d="M158 310H221V385H158V310Z" fill="#F7DF1E"/>
<path id="Vector_53" d="M175 374.026L179.76 370.264C180.679 372.39 181.513 374.189 183.518 374.189C185.439 374.189 186.649 373.208 186.649 369.394V343.444H192.494V369.499C192.494 377.402 188.949 381 183.768 381C179.093 381 176.38 377.837 175.002 374.023L175 374.026ZM195.668 373.205L200.425 369.607C201.678 372.279 203.306 374.236 206.187 374.236C208.61 374.236 210.153 372.656 210.153 370.474C210.153 367.857 208.567 366.931 205.899 365.404L204.438 364.586C200.222 362.244 197.424 359.3 197.424 353.085C197.424 347.36 200.763 343 205.982 343C209.697 343 212.363 344.691 214.289 349.104L209.739 352.921C208.737 350.576 207.653 349.65 205.982 349.65C204.271 349.65 203.183 351.067 203.183 352.921C203.183 355.211 204.268 356.137 206.773 357.55L208.234 358.368C213.197 361.145 216 363.981 216 370.36C216 377.229 211.866 380.991 206.31 380.991C200.874 380.991 197.377 377.596 195.675 373.196" fill="black"/>
</g>
<defs>
<clipPath id="clip0_1_2">
<rect width="863" height="826.714" fill="white"/>
</clipPath>
</defs>
</svg>
