<svg width="712" height="670" viewBox="0 0 712 670" fill="none" xmlns="http://www.w3.org/2000/svg">
<rect width="712" height="670" fill="#E5E5E5"/>
<g id="undraw_feeling_proud_qne1 1" clip-path="url(#clip0_0_1)">
<path id="Vector" d="M516.326 380.018V565.013L547.27 615.443L549.625 619.279H671.722L674.189 380.018H516.326Z" fill="#E6E6E6"/>
<path id="Vector_2" opacity="0.1" d="M516.326 380.018V565.013L547.27 615.443L549.169 380.018H516.326Z" fill="black"/>
<path id="Vector_3" d="M221.566 375.084V560.08L190.622 610.51L188.267 614.345H66.17L63.703 375.084H221.566Z" fill="#E6E6E6"/>
<path id="Vector_4" opacity="0.1" d="M221.566 375.084V560.08L190.622 610.51L188.723 375.084H221.566Z" fill="black"/>
<path id="Vector_5" d="M711.188 371.385V382.484H47.67V366.451L109.335 334.385H656.923L711.188 371.385Z" fill="#E6E6E6"/>
<path id="Vector_6" opacity="0.1" d="M711.188 371.385V382.484H47.67V366.451L711.188 371.385Z" fill="black"/>
<path id="Vector_7" d="M142.635 426.883H113.035L100.702 418.25H156.201L142.635 426.883Z" fill="#3F3D56"/>
<path id="Vector_8" d="M142.635 462.649H113.035L100.702 454.016H156.201L142.635 462.649Z" fill="#3F3D56"/>
<path id="Vector_9" d="M142.635 513.215H113.035L100.702 504.581H156.201L142.635 513.215Z" fill="#3F3D56"/>
<path id="Vector_10" d="M142.635 563.78H113.035L100.702 555.147H156.201L142.635 563.78Z" fill="#3F3D56"/>
<path id="Vector_11" d="M595.257 431.816H624.857L637.19 423.183H581.691L595.257 431.816Z" fill="#3F3D56"/>
<path id="Vector_12" d="M595.257 467.582H624.857L637.19 458.949H581.691L595.257 467.582Z" fill="#3F3D56"/>
<path id="Vector_13" d="M595.257 518.148H624.857L637.19 509.515H581.691L595.257 518.148Z" fill="#3F3D56"/>
<path id="Vector_14" d="M595.257 568.713H624.857L637.19 560.08H581.691L595.257 568.713Z" fill="#3F3D56"/>
<path id="Vector_15" d="M615.414 120.456H366.228C364.991 120.456 363.765 120.7 362.622 121.173C361.478 121.647 360.439 122.341 359.564 123.216C358.689 124.091 357.995 125.13 357.522 126.274C357.048 127.417 356.804 128.643 356.805 129.88V297.738C356.804 298.975 357.048 300.201 357.522 301.344C357.995 302.488 358.689 303.527 359.564 304.402C360.439 305.277 361.478 305.971 362.622 306.445C363.765 306.918 364.991 307.162 366.228 307.162H460.821L457.277 329.788C457.277 329.788 437.025 340.547 451.265 340.864C465.505 341.18 532.593 340.864 532.593 340.864C532.593 340.864 545.567 340.864 524.998 329.472L521.664 307.162H615.414C616.651 307.162 617.877 306.918 619.02 306.445C620.164 305.971 621.203 305.277 622.078 304.402C622.953 303.527 623.647 302.488 624.121 301.344C624.594 300.201 624.838 298.975 624.838 297.738V129.88C624.838 128.643 624.594 127.417 624.121 126.274C623.647 125.13 622.953 124.091 622.078 123.216C621.203 122.341 620.164 121.647 619.02 121.173C617.877 120.7 616.651 120.456 615.414 120.456V120.456Z" fill="#3F3D56"/>
<path id="Vector_16" d="M615.819 130.424H365.823V270.295H615.819V130.424Z" fill="#F2F2F2"/>
<path id="Vector_17" d="M490.821 127.576C491.695 127.576 492.403 126.868 492.403 125.994C492.403 125.12 491.695 124.412 490.821 124.412C489.947 124.412 489.239 125.12 489.239 125.994C489.239 126.868 489.947 127.576 490.821 127.576Z" fill="#F2F2F2"/>
<path id="Vector_18" d="M490.821 300.358C494.142 300.358 496.834 297.666 496.834 294.346C496.834 291.025 494.142 288.333 490.821 288.333C487.5 288.333 484.809 291.025 484.809 294.346C484.809 297.666 487.5 300.358 490.821 300.358Z" fill="#F2F2F2"/>
<path id="Vector_19" d="M481.452 357.952V361.117H311.202V358.585L311.436 357.952L315.632 346.56H477.971L481.452 357.952Z" fill="#3F3D56"/>
<path id="Vector_20" d="M546.97 354.854C546.659 356.18 545.489 357.579 542.843 358.901C533.35 363.648 514.046 357.636 514.046 357.636C514.046 357.636 499.173 355.104 499.173 348.459C499.59 348.173 500.026 347.914 500.477 347.683C504.468 345.572 517.702 340.361 541.167 347.904C542.896 348.447 544.44 349.458 545.628 350.827C546.154 351.344 546.55 351.979 546.783 352.679C547.016 353.379 547.08 354.124 546.97 354.854Z" fill="#3F3D56"/>
<path id="Vector_21" opacity="0.1" d="M546.97 354.854C535.35 359.306 524.992 359.639 514.363 352.256C510.343 349.284 505.476 347.681 500.477 347.683C504.468 345.572 517.702 340.361 541.167 347.904C542.896 348.447 544.44 349.458 545.628 350.827C546.154 351.344 546.55 351.979 546.783 352.679C547.016 353.379 547.08 354.124 546.97 354.854Z" fill="black"/>
<path id="Vector_22" d="M532.4 352.256C534.672 352.256 536.514 351.689 536.514 350.99C536.514 350.291 534.672 349.724 532.4 349.724C530.128 349.724 528.286 350.291 528.286 350.99C528.286 351.689 530.128 352.256 532.4 352.256Z" fill="#F2F2F2"/>
<path id="Vector_23" opacity="0.1" d="M481.452 357.952V361.117H311.202V358.585L311.436 357.952H481.452Z" fill="black"/>
<path id="Vector_24" d="M94.6615 0.00015845C92.9336 -0.141706 91.2035 0.244799 89.7002 1.10846C88.2242 2.11926 87.2939 3.89007 86.3443 5.53792C82.7136 11.9135 77.7985 17.4657 71.9101 21.8426C67.6211 24.9846 62.1684 28.9022 62.9022 34.6953C63.2893 36.6084 63.996 38.4425 64.9927 40.1208C68.9493 48.1078 79.7463 54.28 78.6843 63.3939C82.6153 56.8129 77.3573 53.5588 81.2883 46.978C83.1604 43.844 86.4124 40.3063 89.2388 42.2745C90.1852 42.9335 90.8066 44.1154 91.792 44.6936C94.1432 46.0733 96.6446 43.4356 98.7259 41.5673C105.903 35.1247 116.109 36.8125 125.04 38.8199C129.256 39.7675 133.887 41.0109 136.379 45.0406C139.656 50.3388 133.266 56.0609 131.651 62.0511C131.52 62.5615 131.513 63.0962 131.633 63.6096C131.753 64.1229 131.996 64.5996 132.34 64.9988C132.684 65.398 133.12 65.7079 133.61 65.902C134.1 66.0961 134.63 66.1685 135.154 66.1132C137.834 65.8489 141.009 65.6322 141.167 64.4563C144.539 64.5763 148.67 64.1944 150.114 60.6838C150.556 59.2947 150.789 57.848 150.807 56.3906C151.337 50.4934 153.84 45.1134 155.498 39.5006C157.156 33.8879 157.877 27.3101 155.079 22.3338C154.08 20.6781 152.845 19.1771 151.413 17.8783C135.534 2.51152 114.657 -0.0226516 94.6615 0.00015845Z" fill="#2F2E41"/>
<path id="Vector_25" d="M82.1377 74.9052C82.1377 74.9052 85.5911 103.684 72.9286 105.986C60.2661 108.288 84.4399 147.427 84.4399 147.427L141.997 154.334L128.183 108.288C128.183 108.288 118.974 104.835 124.73 81.812C130.485 58.7893 82.1377 74.9052 82.1377 74.9052Z" fill="#FFB8B8"/>
<path id="Vector_26" d="M47.028 569.318L51.633 632.631H75.806L68.9 569.318H47.028Z" fill="#FFB8B8"/>
<path id="Vector_27" d="M224.303 449.6L227.756 502.552L254.233 491.041L243.872 447.298L224.303 449.6Z" fill="#FFB8B8"/>
<path id="Vector_28" d="M29.761 327.58C29.761 327.58 30.9121 394.345 37.819 416.217C44.7259 438.089 43.5747 439.24 42.4236 442.693C41.2724 446.147 40.1213 443.844 40.1213 449.6C40.1213 455.356 37.819 546.295 40.1213 554.353C42.4235 562.411 33.2145 576.225 40.1213 577.376C47.0281 578.527 79.2599 577.376 80.411 570.469C81.5622 563.563 71.202 561.26 75.8065 556.656C80.4111 552.051 87.3179 457.658 87.3179 457.658L103.434 392.043L133.363 357.509H196.676L216.245 433.484C216.245 433.484 208.187 455.356 213.943 455.356C219.699 455.356 254.233 462.263 254.233 436.938C254.233 411.613 242.721 336.789 240.419 334.486C238.117 332.184 241.57 324.126 238.117 320.673C234.663 317.219 194.374 293.046 179.409 288.441C164.444 283.836 143.451 278.356 143.451 278.356L29.761 327.58Z" fill="#2F2E41"/>
<path id="Vector_29" d="M254.233 481.832C254.233 481.832 236.966 476.076 228.908 493.343C220.85 510.61 224.303 515.215 224.303 515.215C224.303 515.215 250.779 524.424 255.384 519.819C257.387 517.816 263.748 517.12 270.296 516.973C280.269 516.749 282.923 502.64 273.504 499.354C273.223 499.256 272.939 499.171 272.651 499.099C263.442 496.797 254.233 481.832 254.233 481.832Z" fill="#2F2E41"/>
<path id="Vector_30" d="M108.038 93.899C127.111 93.899 142.572 78.4375 142.572 59.3649C142.572 40.2922 127.111 24.8308 108.038 24.8308C88.9656 24.8308 73.5042 40.2922 73.5042 59.3649C73.5042 78.4375 88.9656 93.899 108.038 93.899Z" fill="#FFB8B8"/>
<path id="Vector_31" d="M63.144 120.375C63.144 120.375 119.55 131.886 133.363 113.468C147.177 95.0501 152.933 165.269 152.933 165.269L159.839 238.942L149.479 279.232C149.479 279.232 95.3758 322.975 78.1087 326.428C60.8417 329.882 34.3655 332.184 34.3655 332.184C34.3655 332.184 42.4236 204.408 42.4236 202.106C42.4236 199.803 63.144 120.375 63.144 120.375Z" fill="#59B256"/>
<path id="Vector_32" d="M80.2983 98.7859C80.2983 98.7859 67.7485 91.5967 64.2951 98.5035C60.8417 105.41 28.6099 122.677 25.1565 122.677C21.7031 122.677 32.0633 218.222 27.4587 229.733C22.8542 241.244 0.982611 325.277 13.6451 332.184C26.3076 339.091 17.0985 325.277 29.761 342.544C42.4235 359.811 104.585 359.811 108.038 352.905C111.492 345.998 80.411 294.197 86.1667 245.849C91.9224 197.501 101.131 130.735 93.0735 121.526C85.0156 112.317 80.2983 98.7859 80.2983 98.7859Z" fill="#2F2E41"/>
<path id="Vector_33" d="M121.852 106.561L123.455 101.043C123.455 101.043 171.351 116.922 173.653 127.282C175.955 137.642 174.804 210.164 166.746 215.919C158.688 221.675 147.177 230.884 155.235 244.698C163.293 258.511 172.502 273.476 179.409 274.627C186.316 275.778 198.978 283.836 195.525 291.894C192.071 299.952 150.63 284.988 150.63 284.988C150.63 284.988 123.003 264.267 124.154 232.035C125.305 199.803 121.852 106.561 121.852 106.561Z" fill="#2F2E41"/>
<path id="Vector_34" d="M162.142 242.396L134.514 294.197C134.514 294.197 94.2246 335.638 117.247 340.242C140.27 344.847 152.933 302.255 152.933 302.255L182.862 259.663L162.142 242.396Z" fill="#FFB8B8"/>
<path id="Vector_35" d="M96.3438 9.03593C94.9518 8.93279 93.5575 9.20322 92.3051 9.81927C91.1726 10.6463 90.2393 11.716 89.5733 12.95C86.5029 17.5685 82.5005 21.4939 77.8232 24.474C74.3318 26.6948 69.893 29.4637 70.4904 33.5582C70.8146 34.931 71.3917 36.2314 72.1922 37.3929C75.4241 43.0951 76.7108 49.6949 75.8574 56.1936L85.4575 42.2396C86.9814 40.0245 89.6287 37.5241 91.9296 38.9151C92.6999 39.3809 93.2058 40.2163 94.0079 40.625C95.9219 41.6002 97.9581 39.7359 99.6524 38.4153C105.495 33.8617 113.803 35.0547 121.073 36.4735C124.505 37.1433 128.275 38.022 130.304 40.8702C133.676 45.6033 130.155 52.4423 132.123 57.9102C132.674 57.5246 133.141 57.0322 133.498 56.4624C133.855 55.8926 134.095 55.2569 134.201 54.593C136.946 54.6779 140.309 54.408 141.485 51.9267C141.842 50.9542 142.033 49.9283 142.049 48.8923C142.48 44.7242 144.518 40.9216 145.867 36.9546C147.217 32.9876 147.804 28.3384 145.526 24.8212C144.693 23.6295 143.687 22.5682 142.542 21.672C129.616 10.8109 112.621 9.01981 96.3438 9.03593Z" fill="#2F2E41"/>
<path id="Vector_36" d="M162.142 122.677L172.867 125.524C172.867 125.524 197.827 189.443 192.071 233.186C186.316 276.93 182.862 267.721 182.862 267.721C182.862 267.721 173.653 247 152.933 251.605L162.142 122.677Z" fill="#2F2E41"/>
<path id="Vector_37" d="M48.6229 624.263C45.847 628.036 46.4035 633.428 43.9446 637.414C41.8132 640.869 37.7962 642.681 35.1302 645.743C34.2795 646.76 33.5212 647.851 32.8641 649.003C30.391 653.145 28.3808 658.454 30.8165 662.619C32.7758 665.969 36.8943 667.279 40.6715 668.171C45.4455 669.299 50.4058 670.202 55.235 669.34C60.0642 668.478 64.7838 665.521 66.5057 660.927C66.8441 659.772 67.2464 658.637 67.7108 657.527C70.3282 652.374 78.5383 652.318 81.217 647.197C83.0917 643.613 81.3684 639.28 79.6459 635.621L74.3848 624.444C72.6389 620.735 65.5611 622.868 61.8714 621.979C57.0591 620.82 52.0848 619.543 48.6229 624.263Z" fill="#2F2E41"/>
<path id="Vector_38" d="M10.1917 265.418L58.5394 340.242C58.5394 340.242 88.4689 378.23 97.678 360.963C106.887 343.696 65.4462 314.917 65.4462 314.917L34.3655 257.36L10.1917 265.418Z" fill="#FFB8B8"/>
<path id="Vector_39" d="M34.3655 124.98L25.1564 122.677C25.1564 122.677 6.73826 128.433 2.13372 152.607C-2.47081 176.781 0.982583 273.476 6.73826 274.627C12.4939 275.778 35.1655 257.791 38.7945 261.604C42.4235 265.418 30.9121 245.849 34.3655 235.489C37.8189 225.128 34.3655 124.98 34.3655 124.98Z" fill="#2F2E41"/>
<g id="reactsymbol">
<path id="Vector_40" d="M424 199.439C423.969 209.162 433.454 218.268 448.435 223.432C445.392 238.47 447.813 250.606 456.008 255.358C464.432 260.242 477.016 256.919 488.982 246.546C500.583 256.573 512.327 260.542 520.545 255.828C528.992 250.984 531.597 238.041 528.569 222.514C544.206 217.409 552.969 209.697 553 199.846C553.03 190.349 543.526 182.102 528.746 176.972C532.111 160.824 529.341 148.981 520.805 144.034C512.577 139.263 500.671 143.361 488.835 153.575C476.589 142.655 464.825 139.296 456.267 144.204C448.016 148.936 445.627 161.278 448.583 176.613C434.076 181.61 424.03 189.98 424 199.439Z" fill="white"/>
<path id="Vector_41" d="M524.987 181.773C523.769 181.352 522.541 180.962 521.302 180.602C521.51 179.769 521.703 178.933 521.88 178.093C524.715 164.578 522.924 153.676 516.702 150.07C510.737 146.611 500.951 150.167 491.052 158.709C490.077 159.553 489.123 160.421 488.192 161.313C487.572 160.716 486.941 160.131 486.299 159.557C475.982 150.357 465.625 146.461 459.387 150.039C453.405 153.469 451.604 163.707 454.077 176.532C454.323 177.802 454.601 179.065 454.912 180.322C453.443 180.733 452.024 181.172 450.667 181.639C438.525 185.821 430.758 192.411 430.736 199.272C430.714 206.358 439.006 213.492 451.626 217.841C452.65 218.192 453.681 218.517 454.721 218.817C454.379 220.168 454.075 221.528 453.808 222.896C451.372 235.483 453.212 245.489 459.156 248.936C465.296 252.495 475.63 248.89 485.71 240.152C486.506 239.461 487.306 238.731 488.107 237.961C489.11 238.932 490.139 239.875 491.195 240.79C500.905 249.183 510.511 252.59 516.471 249.171C522.628 245.64 524.658 234.904 522.107 221.825C521.912 220.826 521.687 219.806 521.43 218.766C522.155 218.555 522.866 218.336 523.562 218.109C536.71 213.808 545.277 206.814 545.299 199.633C545.321 192.748 537.346 186.063 524.987 181.773H524.987Z" fill="#53C1DE"/>
<path id="Vector_42" d="M523.038 213.64C522.411 213.845 521.768 214.043 521.112 214.235C519.526 209.276 517.603 204.43 515.356 199.732C517.547 195.11 519.424 190.348 520.977 185.476C522.148 185.818 523.285 186.179 524.38 186.559C534.97 190.234 541.419 195.64 541.406 199.79C541.392 204.21 534.39 209.926 523.038 213.64H523.038ZM518.303 222.93C519.431 228.714 519.579 233.94 518.806 238.022C518.112 241.691 516.732 244.133 515.033 245.108C511.416 247.183 503.703 244.447 495.399 237.27C494.447 236.447 493.49 235.57 492.527 234.64C496.011 230.814 499.232 226.759 502.168 222.5C507.39 222.077 512.577 221.296 517.692 220.162C517.922 221.104 518.126 222.027 518.303 222.93V222.93ZM470.651 244.608C467.12 245.84 464.31 245.867 462.615 244.884C459.008 242.793 457.532 234.758 459.614 223.994C459.862 222.722 460.145 221.457 460.463 220.201C465.549 221.308 470.705 222.069 475.895 222.48C478.89 226.742 482.162 230.803 485.69 234.637C484.977 235.321 484.247 235.987 483.501 236.636C479.044 240.5 474.581 243.236 470.651 244.608H470.651ZM454.224 213.396C448.644 211.472 444.039 208.982 440.885 206.269C438.051 203.832 436.624 201.416 436.63 199.459C436.643 195.296 442.88 190.005 453.264 186.429C454.568 185.982 455.883 185.573 457.211 185.203C458.736 190.139 460.586 194.968 462.749 199.66C460.529 204.406 458.625 209.292 457.05 214.288C456.101 214.014 455.159 213.716 454.224 213.396ZM459.883 175.781C457.765 164.792 459.221 156.513 462.825 154.446C466.666 152.243 475.13 155.428 484.038 163.371C484.607 163.879 485.179 164.411 485.752 164.961C482.223 168.748 478.95 172.764 475.954 176.983C470.811 177.427 465.702 178.203 460.659 179.306C460.371 178.138 460.112 176.962 459.883 175.781V175.781ZM509.262 188.115C508.148 186.181 506.993 184.271 505.796 182.386C509.45 182.858 512.95 183.482 516.236 184.241C515.17 187.579 513.936 190.861 512.539 194.075C511.486 192.067 510.394 190.08 509.262 188.115ZM489.172 168.462C491.546 171.062 493.788 173.78 495.888 176.606C491.377 176.379 486.864 176.363 482.347 176.56C484.582 173.638 486.871 170.923 489.172 168.462ZM468.828 188.021C467.698 189.963 466.614 191.931 465.575 193.924C464.161 190.546 462.952 187.225 461.966 184.019C465.237 183.299 468.725 182.713 472.358 182.272C471.136 184.16 469.96 186.077 468.828 188.021ZM472.352 217.221C468.807 216.826 465.285 216.249 461.799 215.493C462.821 212.237 464.078 208.852 465.545 205.411C466.574 207.412 467.651 209.387 468.774 211.338C469.919 213.327 471.112 215.288 472.352 217.221V217.221ZM489.109 231.133C486.797 228.627 484.492 225.857 482.242 222.878C484.435 222.971 486.669 223.021 488.944 223.029C491.279 223.036 493.585 222.992 495.86 222.897C493.752 225.756 491.499 228.505 489.109 231.133V231.133ZM512.549 205.384C513.995 208.672 515.269 212.033 516.365 215.454C512.834 216.234 509.265 216.83 505.672 217.238C506.889 215.326 508.068 213.39 509.208 211.431C510.367 209.44 511.48 207.424 512.549 205.384V205.384ZM504.976 208.978C503.231 211.981 501.39 214.925 499.452 217.811C496.052 218.042 492.539 218.156 488.96 218.145C485.395 218.134 481.927 218.012 478.588 217.785C476.62 214.896 474.763 211.936 473.017 208.904C471.281 205.89 469.662 202.814 468.159 199.676C469.677 196.548 471.311 193.481 473.061 190.474V190.475C474.809 187.469 476.67 184.533 478.644 181.667C482.052 181.42 485.545 181.297 489.077 181.308C492.624 181.319 496.121 181.466 499.526 181.735C501.46 184.608 503.291 187.546 505.019 190.549C506.755 193.558 508.391 196.621 509.928 199.738C508.388 202.876 506.738 205.956 504.976 208.978H504.976ZM515.245 154.466C519.074 156.686 520.538 165.595 518.09 177.265C517.93 178.025 517.756 178.782 517.568 179.536C512.525 178.379 507.41 177.556 502.258 177.073C499.319 172.83 496.096 168.79 492.612 164.98C493.473 164.157 494.353 163.356 495.254 162.576C503.735 155.257 511.649 152.381 515.245 154.466V154.466Z" fill="white"/>
<path id="Vector_43" d="M489.836 189.9C491.859 189.906 493.835 190.511 495.514 191.639C497.193 192.766 498.499 194.365 499.268 196.233C500.036 198.101 500.232 200.154 499.831 202.134C499.43 204.113 498.45 205.929 497.015 207.353C495.579 208.776 493.753 209.743 491.768 210.13C489.782 210.518 487.726 210.309 485.859 209.531C483.992 208.752 482.398 207.438 481.279 205.756C480.161 204.073 479.567 202.097 479.573 200.078C479.578 198.737 479.846 197.41 480.364 196.173C480.882 194.936 481.64 193.813 482.593 192.868C483.545 191.923 484.676 191.174 485.918 190.665C487.161 190.156 488.492 189.896 489.836 189.9" fill="#53C1DE"/>
</g>
<g id="js">
<path id="Vector_44" d="M340 58H254V158.828H340V58Z" fill="#3F3D56"/>
<path id="Vector_45" d="M326.655 73.6457H267.345V143.182H326.655V73.6457Z" fill="#F2F2F2"/>
<path id="Vector_46" d="M267 71.6995H330V146.7H267V71.6995Z" fill="#F7DF1E"/>
<path id="Vector_47" d="M284 135.725L288.76 131.964C289.679 134.09 290.513 135.889 292.518 135.889C294.439 135.889 295.649 134.908 295.649 131.093V105.144H301.494V131.198C301.494 139.101 297.949 142.7 292.768 142.7C288.093 142.7 285.38 139.536 284.002 135.722L284 135.725ZM304.668 134.904L309.425 131.306C310.678 133.979 312.306 135.935 315.187 135.935C317.61 135.935 319.153 134.355 319.153 132.173C319.153 129.557 317.567 128.631 314.899 127.103L313.438 126.286C309.222 123.943 306.424 120.999 306.424 114.784C306.424 109.06 309.763 104.7 314.982 104.7C318.697 104.7 321.363 106.391 323.289 110.803L318.739 114.621C317.737 112.275 316.653 111.35 314.982 111.35C313.271 111.35 312.183 112.766 312.183 114.621C312.183 116.911 313.268 117.836 315.773 119.25L317.234 120.067C322.197 122.845 325 125.681 325 132.059C325 138.929 320.866 142.69 315.31 142.69C309.874 142.69 306.377 139.296 304.675 134.895" fill="black"/>
</g>
</g>
<defs>
<clipPath id="clip0_0_1">
<rect width="711.188" height="669.683" fill="white"/>
</clipPath>
</defs>
</svg>
