<svg id="visual" viewBox="0 0 900 600" width="900" height="600" xmlns="http://www.w3.org/2000/svg" xmlns:xlink="http://www.w3.org/1999/xlink" version="1.1"><rect x="0" y="0" width="900" height="600" fill="#FFFFFF"></rect><defs><linearGradient id="grad1_0" x1="33.3%" y1="0%" x2="100%" y2="100%"><stop offset="20%" stop-color="#ffffff" stop-opacity="1"></stop><stop offset="80%" stop-color="#ffffff" stop-opacity="1"></stop></linearGradient></defs><defs><linearGradient id="grad2_0" x1="0%" y1="0%" x2="66.7%" y2="100%"><stop offset="20%" stop-color="#ffffff" stop-opacity="1"></stop><stop offset="80%" stop-color="#ffffff" stop-opacity="1"></stop></linearGradient></defs><g transform="translate(900, 0)"><path d="M0 486.7C-59.1 472.3 -118.2 457.8 -181.4 437.9C-244.6 418.1 -311.9 392.8 -344.2 344.2C-376.5 295.5 -373.8 223.5 -391.7 162.3C-409.7 101 -448.2 50.5 -486.7 0L0 0Z" fill="#59b256"></path></g><g transform="translate(0, 600)"><path d="M0 -486.7C62.8 -467.5 125.6 -448.2 171.8 -414.8C218.1 -381.4 247.8 -333.8 297 -297C346.2 -260.1 414.8 -234 449.7 -186.3C484.6 -138.6 485.7 -69.3 486.7 0L0 0Z" fill="#59b256"></path></g></svg>