<svg id="visual" viewBox="0 0 900 600" width="900" height="600" xmlns="http://www.w3.org/2000/svg" xmlns:xlink="http://www.w3.org/1999/xlink" version="1.1"><rect x="0" y="0" width="900" height="600" fill="#FFFFFF"></rect><defs><linearGradient id="grad1_0" x1="33.3%" y1="0%" x2="100%" y2="100%"><stop offset="20%" stop-color="#59b256" stop-opacity="1"></stop><stop offset="80%" stop-color="#59b256" stop-opacity="1"></stop></linearGradient></defs><defs><linearGradient id="grad1_1" x1="33.3%" y1="0%" x2="100%" y2="100%"><stop offset="20%" stop-color="#59b256" stop-opacity="1"></stop><stop offset="80%" stop-color="#ffffff" stop-opacity="1"></stop></linearGradient></defs><defs><linearGradient id="grad2_0" x1="0%" y1="0%" x2="66.7%" y2="100%"><stop offset="20%" stop-color="#59b256" stop-opacity="1"></stop><stop offset="80%" stop-color="#59b256" stop-opacity="1"></stop></linearGradient></defs><defs><linearGradient id="grad2_1" x1="0%" y1="0%" x2="66.7%" y2="100%"><stop offset="20%" stop-color="#ffffff" stop-opacity="1"></stop><stop offset="80%" stop-color="#59b256" stop-opacity="1"></stop></linearGradient></defs><g transform="translate(900, 0)"><path d="M0 405.6C-57.4 398.6 -114.8 391.7 -148.5 358.5C-182.2 325.3 -192.3 265.8 -231.9 231.9C-271.6 198 -340.9 189.6 -374.7 155.2C-408.6 120.8 -407.1 60.4 -405.6 0L0 0Z" fill="#afd9a9"></path><path d="M0 202.8C-28.7 199.3 -57.4 195.8 -74.2 179.2C-91.1 162.6 -96.1 132.9 -116 116C-135.8 99 -170.4 94.8 -187.4 77.6C-204.3 60.4 -203.6 30.2 -202.8 0L0 0Z" fill="#59b256"></path></g><g transform="translate(0, 600)"><path d="M0 -405.6C36.5 -361.6 72.9 -317.6 126.3 -304.9C179.6 -292.2 249.8 -310.7 286.8 -286.8C323.8 -262.9 327.6 -196.5 341.8 -141.6C356.1 -86.7 380.9 -43.4 405.6 0L0 0Z" fill="#afd9a9"></path><path d="M0 -202.8C18.2 -180.8 36.5 -158.8 63.1 -152.4C89.8 -146.1 124.9 -155.4 143.4 -143.4C161.9 -131.4 163.8 -98.2 170.9 -70.8C178 -43.4 190.4 -21.7 202.8 0L0 0Z" fill="#59b256"></path></g></svg>