<svg id="visual" viewBox="0 0 900 600" width="900" height="600" xmlns="http://www.w3.org/2000/svg" xmlns:xlink="http://www.w3.org/1999/xlink" version="1.1"><path d="M0 374L16.7 385C33.3 396 66.7 418 100 427C133.3 436 166.7 432 200 420.2C233.3 408.3 266.7 388.7 300 393.8C333.3 399 366.7 429 400 429.5C433.3 430 466.7 401 500 387.7C533.3 374.3 566.7 376.7 600 390C633.3 403.3 666.7 427.7 700 426.7C733.3 425.7 766.7 399.3 800 384.3C833.3 369.3 866.7 365.7 883.3 363.8L900 362L900 601L883.3 601C866.7 601 833.3 601 800 601C766.7 601 733.3 601 700 601C666.7 601 633.3 601 600 601C566.7 601 533.3 601 500 601C466.7 601 433.3 601 400 601C366.7 601 333.3 601 300 601C266.7 601 233.3 601 200 601C166.7 601 133.3 601 100 601C66.7 601 33.3 601 16.7 601L0 601Z" fill="#59b256" stroke-linecap="round" stroke-linejoin="miter"></path></svg>