<svg id="visual" viewBox="0 0 900 600" width="900" height="600" xmlns="http://www.w3.org/2000/svg" xmlns:xlink="http://www.w3.org/1999/xlink" version="1.1"><rect x="0" y="0" width="900" height="600" fill="#ffffff"></rect><path d="M714 600L705.2 583.3C696.3 566.7 678.7 533.3 665.5 500C652.3 466.7 643.7 433.3 658.7 400C673.7 366.7 712.3 333.3 686.7 300C661 266.7 571 233.3 538.7 200C506.3 166.7 531.7 133.3 526.5 100C521.3 66.7 485.7 33.3 467.8 16.7L450 0L900 0L900 16.7C900 33.3 900 66.7 900 100C900 133.3 900 166.7 900 200C900 233.3 900 266.7 900 300C900 333.3 900 366.7 900 400C900 433.3 900 466.7 900 500C900 533.3 900 566.7 900 583.3L900 600Z" fill="#59b256" stroke-linecap="round" stroke-linejoin="miter"></path></svg>