<svg id="visual" viewBox="0 0 900 600" width="900" height="600" xmlns="http://www.w3.org/2000/svg" xmlns:xlink="http://www.w3.org/1999/xlink" version="1.1"><g stroke-width="1" stroke-linejoin="bevel"><path d="M467 365.9L441 425.6L512 397.6Z" fill="#1c5977" stroke="#1c5977"></path><path d="M441 425.6L433 477.3L512 397.6Z" fill="#071825" stroke="#071825"></path><path d="M331 374.9L355 427.6L441 425.6Z" fill="#00101c" stroke="#00101c"></path><path d="M441 425.6L355 427.6L433 477.3Z" fill="#071825" stroke="#071825"></path><path d="M512 397.6L573 333.9L467 365.9Z" fill="#1d6282" stroke="#1d6282"></path><path d="M441 600L510 527.3L433 477.3Z" fill="#071825" stroke="#071825"></path><path d="M433 477.3L510 527.3L512 397.6Z" fill="#0a202e" stroke="#0a202e"></path><path d="M512 397.6L613 451.6L573 333.9Z" fill="#102f42" stroke="#102f42"></path><path d="M355 427.6L358 482.3L433 477.3Z" fill="#00101c" stroke="#00101c"></path><path d="M342 266.1L331 374.9L467 365.9Z" fill="#1c5977" stroke="#1c5977"></path><path d="M467 365.9L331 374.9L441 425.6Z" fill="#0d2738" stroke="#0d2738"></path><path d="M355 427.6L231 441.6L358 482.3Z" fill="#102f42" stroke="#102f42"></path><path d="M510 527.3L613 451.6L512 397.6Z" fill="#13374c" stroke="#13374c"></path><path d="M542 230.1L435 225.1L467 365.9Z" fill="#0a202e" stroke="#0a202e"></path><path d="M510 527.3L598 542.3L613 451.6Z" fill="#1d6282" stroke="#1d6282"></path><path d="M653 270.1L542 230.1L573 333.9Z" fill="#00101c" stroke="#00101c"></path><path d="M573 333.9L542 230.1L467 365.9Z" fill="#184861" stroke="#184861"></path><path d="M687 269.1L642 320.9L743 312.9Z" fill="#1d6282" stroke="#1d6282"></path><path d="M613 451.6L642 320.9L573 333.9Z" fill="#153f56" stroke="#153f56"></path><path d="M435 225.1L342 266.1L467 365.9Z" fill="#1c5977" stroke="#1c5977"></path><path d="M358 482.3L441 600L433 477.3Z" fill="#13374c" stroke="#13374c"></path><path d="M510 527.3L551 600L598 542.3Z" fill="#153f56" stroke="#153f56"></path><path d="M533 191.4L431 204.4L435 225.1Z" fill="#153f56" stroke="#153f56"></path><path d="M435 225.1L431 204.4L342 266.1Z" fill="#13374c" stroke="#13374c"></path><path d="M441 600L551 600L510 527.3Z" fill="#184861" stroke="#184861"></path><path d="M599 191.4L533 191.4L542 230.1Z" fill="#102f42" stroke="#102f42"></path><path d="M542 230.1L533 191.4L435 225.1Z" fill="#00101c" stroke="#00101c"></path><path d="M642 320.9L653 270.1L573 333.9Z" fill="#071825" stroke="#071825"></path><path d="M687 269.1L653 270.1L642 320.9Z" fill="#153f56" stroke="#153f56"></path><path d="M273 600L349 600L358 482.3Z" fill="#1d6282" stroke="#1d6282"></path><path d="M358 482.3L349 600L441 600Z" fill="#1c5977" stroke="#1c5977"></path><path d="M256 292.1L251 332.9L331 374.9Z" fill="#102f42" stroke="#102f42"></path><path d="M331 374.9L231 441.6L355 427.6Z" fill="#102f42" stroke="#102f42"></path><path d="M342 266.1L256 292.1L331 374.9Z" fill="#0d2738" stroke="#0d2738"></path><path d="M232 162.4L256 292.1L342 266.1Z" fill="#071825" stroke="#071825"></path><path d="M210 353.9L231 441.6L251 332.9Z" fill="#071825" stroke="#071825"></path><path d="M251 332.9L231 441.6L331 374.9Z" fill="#13374c" stroke="#13374c"></path><path d="M653 270.1L599 191.4L542 230.1Z" fill="#153f56" stroke="#153f56"></path><path d="M752 410.6L642 320.9L613 451.6Z" fill="#0d2738" stroke="#0d2738"></path><path d="M653 270.1L687 269.1L599 191.4Z" fill="#153f56" stroke="#153f56"></path><path d="M551 600L640 600L598 542.3Z" fill="#0d2738" stroke="#0d2738"></path><path d="M598 542.3L722 477.3L613 451.6Z" fill="#13374c" stroke="#13374c"></path><path d="M351 112.7L364 171.4L453 63.7Z" fill="#184861" stroke="#184861"></path><path d="M431 204.4L364 171.4L342 266.1Z" fill="#1d6282" stroke="#1d6282"></path><path d="M501 94.7L431 204.4L533 191.4Z" fill="#1a506c" stroke="#1a506c"></path><path d="M694 600L722 477.3L598 542.3Z" fill="#0a202e" stroke="#0a202e"></path><path d="M256 292.1L210 353.9L251 332.9Z" fill="#0a202e" stroke="#0a202e"></path><path d="M152 495.3L231 532.3L231 441.6Z" fill="#00101c" stroke="#00101c"></path><path d="M231 441.6L231 532.3L358 482.3Z" fill="#102f42" stroke="#102f42"></path><path d="M722 477.3L752 410.6L613 451.6Z" fill="#0d2738" stroke="#0d2738"></path><path d="M231 532.3L273 600L358 482.3Z" fill="#071825" stroke="#071825"></path><path d="M752 410.6L743 312.9L642 320.9Z" fill="#1d6282" stroke="#1d6282"></path><path d="M718 138.4L599 114.7L599 191.4Z" fill="#0a202e" stroke="#0a202e"></path><path d="M640 600L694 600L598 542.3Z" fill="#071825" stroke="#071825"></path><path d="M722 477.3L837 440.6L752 410.6Z" fill="#1d6282" stroke="#1d6282"></path><path d="M599 114.7L533 191.4L599 191.4Z" fill="#102f42" stroke="#102f42"></path><path d="M599 114.7L501 94.7L533 191.4Z" fill="#13374c" stroke="#13374c"></path><path d="M752 410.6L773 310.9L743 312.9Z" fill="#0a202e" stroke="#0a202e"></path><path d="M743 312.9L773 310.9L687 269.1Z" fill="#00101c" stroke="#00101c"></path><path d="M718 138.4L599 191.4L687 269.1Z" fill="#1a506c" stroke="#1a506c"></path><path d="M453 63.7L364 171.4L431 204.4Z" fill="#0d2738" stroke="#0d2738"></path><path d="M200 190.4L184 264.1L256 292.1Z" fill="#184861" stroke="#184861"></path><path d="M256 292.1L184 264.1L210 353.9Z" fill="#1c5977" stroke="#1c5977"></path><path d="M232 162.4L342 266.1L364 171.4Z" fill="#071825" stroke="#071825"></path><path d="M210 353.9L141 397.6L231 441.6Z" fill="#0a202e" stroke="#0a202e"></path><path d="M127 381.9L141 397.6L210 353.9Z" fill="#1c5977" stroke="#1c5977"></path><path d="M231 532.3L154 600L273 600Z" fill="#1a506c" stroke="#1a506c"></path><path d="M141 397.6L152 495.3L231 441.6Z" fill="#153f56" stroke="#153f56"></path><path d="M418 0L453 63.7L557 0Z" fill="#153f56" stroke="#153f56"></path><path d="M501 94.7L453 63.7L431 204.4Z" fill="#1d6282" stroke="#1d6282"></path><path d="M248 49.7L232 162.4L351 112.7Z" fill="#0a202e" stroke="#0a202e"></path><path d="M351 112.7L232 162.4L364 171.4Z" fill="#0d2738" stroke="#0d2738"></path><path d="M232 162.4L200 190.4L256 292.1Z" fill="#0a202e" stroke="#0a202e"></path><path d="M184 264.1L127 381.9L210 353.9Z" fill="#1d6282" stroke="#1d6282"></path><path d="M55 241.1L127 381.9L184 264.1Z" fill="#1a506c" stroke="#1a506c"></path><path d="M141 397.6L122 417.6L152 495.3Z" fill="#00101c" stroke="#00101c"></path><path d="M127 381.9L122 417.6L141 397.6Z" fill="#0d2738" stroke="#0d2738"></path><path d="M830 272.1L718 138.4L687 269.1Z" fill="#071825" stroke="#071825"></path><path d="M557 0L453 63.7L501 94.7Z" fill="#1a506c" stroke="#1a506c"></path><path d="M811 547.3L837 440.6L722 477.3Z" fill="#153f56" stroke="#153f56"></path><path d="M752 410.6L837 440.6L773 310.9Z" fill="#1d6282" stroke="#1d6282"></path><path d="M773 310.9L830 272.1L687 269.1Z" fill="#071825" stroke="#071825"></path><path d="M694 600L811 547.3L722 477.3Z" fill="#00101c" stroke="#00101c"></path><path d="M88 600L154 600L152 495.3Z" fill="#0a202e" stroke="#0a202e"></path><path d="M152 495.3L154 600L231 532.3Z" fill="#13374c" stroke="#13374c"></path><path d="M900 314.9L830 272.1L773 310.9Z" fill="#184861" stroke="#184861"></path><path d="M900 509.3L900 463.6L837 440.6Z" fill="#13374c" stroke="#13374c"></path><path d="M694 600L824 600L811 547.3Z" fill="#071825" stroke="#071825"></path><path d="M557 0L501 94.7L599 114.7Z" fill="#1a506c" stroke="#1a506c"></path><path d="M453 63.7L371 0L351 112.7Z" fill="#13374c" stroke="#13374c"></path><path d="M653 0L557 0L599 114.7Z" fill="#153f56" stroke="#153f56"></path><path d="M232 162.4L157 122.7L200 190.4Z" fill="#071825" stroke="#071825"></path><path d="M418 0L371 0L453 63.7Z" fill="#0d2738" stroke="#0d2738"></path><path d="M289 0L248 49.7L351 112.7Z" fill="#1d6282" stroke="#1d6282"></path><path d="M78 157.4L55 241.1L184 264.1Z" fill="#0d2738" stroke="#0d2738"></path><path d="M248 49.7L157 122.7L232 162.4Z" fill="#1a506c" stroke="#1a506c"></path><path d="M0 423.6L64 524.3L122 417.6Z" fill="#184861" stroke="#184861"></path><path d="M0 423.6L122 417.6L127 381.9Z" fill="#1c5977" stroke="#1c5977"></path><path d="M122 417.6L64 524.3L152 495.3Z" fill="#1a506c" stroke="#1a506c"></path><path d="M900 509.3L837 440.6L811 547.3Z" fill="#184861" stroke="#184861"></path><path d="M837 440.6L900 314.9L773 310.9Z" fill="#0d2738" stroke="#0d2738"></path><path d="M64 524.3L88 600L152 495.3Z" fill="#1c5977" stroke="#1c5977"></path><path d="M830 272.1L828 155.4L718 138.4Z" fill="#13374c" stroke="#13374c"></path><path d="M718 138.4L653 0L599 114.7Z" fill="#071825" stroke="#071825"></path><path d="M900 248.1L828 155.4L830 272.1Z" fill="#1a506c" stroke="#1a506c"></path><path d="M900 463.6L900 314.9L837 440.6Z" fill="#071825" stroke="#071825"></path><path d="M900 600L900 509.3L811 547.3Z" fill="#0d2738" stroke="#0d2738"></path><path d="M810 80.7L746 58.7L718 138.4Z" fill="#1d6282" stroke="#1d6282"></path><path d="M746 58.7L653 0L718 138.4Z" fill="#071825" stroke="#071825"></path><path d="M108 67.7L78 157.4L157 122.7Z" fill="#102f42" stroke="#102f42"></path><path d="M371 0L289 0L351 112.7Z" fill="#13374c" stroke="#13374c"></path><path d="M78 157.4L184 264.1L200 190.4Z" fill="#102f42" stroke="#102f42"></path><path d="M900 314.9L900 248.1L830 272.1Z" fill="#1a506c" stroke="#1a506c"></path><path d="M157 122.7L78 157.4L200 190.4Z" fill="#071825" stroke="#071825"></path><path d="M108 67.7L157 122.7L181 0Z" fill="#071825" stroke="#071825"></path><path d="M828 155.4L810 80.7L718 138.4Z" fill="#0d2738" stroke="#0d2738"></path><path d="M746 58.7L712 0L653 0Z" fill="#00101c" stroke="#00101c"></path><path d="M900 109.7L810 80.7L828 155.4Z" fill="#153f56" stroke="#153f56"></path><path d="M824 600L900 600L811 547.3Z" fill="#1c5977" stroke="#1c5977"></path><path d="M815 0L712 0L746 58.7Z" fill="#102f42" stroke="#102f42"></path><path d="M0 325.9L0 423.6L127 381.9Z" fill="#1d6282" stroke="#1d6282"></path><path d="M64 524.3L0 600L88 600Z" fill="#071825" stroke="#071825"></path><path d="M0 325.9L127 381.9L55 241.1Z" fill="#184861" stroke="#184861"></path><path d="M0 256.1L0 325.9L55 241.1Z" fill="#00101c" stroke="#00101c"></path><path d="M0 423.6L0 524.3L64 524.3Z" fill="#0a202e" stroke="#0a202e"></path><path d="M900 248.1L900 163.4L828 155.4Z" fill="#1a506c" stroke="#1a506c"></path><path d="M0 205.4L0 256.1L55 241.1Z" fill="#0a202e" stroke="#0a202e"></path><path d="M181 0L157 122.7L248 49.7Z" fill="#153f56" stroke="#153f56"></path><path d="M78 157.4L0 205.4L55 241.1Z" fill="#13374c" stroke="#13374c"></path><path d="M289 0L181 0L248 49.7Z" fill="#1a506c" stroke="#1a506c"></path><path d="M0 524.3L0 600L64 524.3Z" fill="#184861" stroke="#184861"></path><path d="M0 91.7L0 205.4L78 157.4Z" fill="#0a202e" stroke="#0a202e"></path><path d="M900 163.4L900 109.7L828 155.4Z" fill="#153f56" stroke="#153f56"></path><path d="M810 80.7L815 0L746 58.7Z" fill="#0a202e" stroke="#0a202e"></path><path d="M900 0L815 0L810 80.7Z" fill="#1c5977" stroke="#1c5977"></path><path d="M181 0L116 0L108 67.7Z" fill="#102f42" stroke="#102f42"></path><path d="M108 67.7L0 91.7L78 157.4Z" fill="#184861" stroke="#184861"></path><path d="M0 0L0 91.7L108 67.7Z" fill="#0a202e" stroke="#0a202e"></path><path d="M900 109.7L900 0L810 80.7Z" fill="#184861" stroke="#184861"></path><path d="M116 0L0 0L108 67.7Z" fill="#0a202e" stroke="#0a202e"></path></g></svg>