<svg id="visual" viewBox="0 0 900 600" width="900" height="600" xmlns="http://www.w3.org/2000/svg" xmlns:xlink="http://www.w3.org/1999/xlink" version="1.1"><path d="M0 336L13.7 348.7C27.3 361.3 54.7 386.7 82 399.3C109.3 412 136.7 412 163.8 408.3C191 404.7 218 397.3 245.2 394.3C272.3 391.3 299.7 392.7 327 390.8C354.3 389 381.7 384 409 384.8C436.3 385.7 463.7 392.3 491 399.7C518.3 407 545.7 415 573 411.8C600.3 408.7 627.7 394.3 654.8 385.2C682 376 709 372 736.2 376.7C763.3 381.3 790.7 394.7 818 384.5C845.3 374.3 872.7 340.7 886.3 323.8L900 307L900 601L886.3 601C872.7 601 845.3 601 818 601C790.7 601 763.3 601 736.2 601C709 601 682 601 654.8 601C627.7 601 600.3 601 573 601C545.7 601 518.3 601 491 601C463.7 601 436.3 601 409 601C381.7 601 354.3 601 327 601C299.7 601 272.3 601 245.2 601C218 601 191 601 163.8 601C136.7 601 109.3 601 82 601C54.7 601 27.3 601 13.7 601L0 601Z" fill="#59d256"></path><path d="M0 466L13.7 466.3C27.3 466.7 54.7 467.3 82 464.5C109.3 461.7 136.7 455.3 163.8 452C191 448.7 218 448.3 245.2 439.2C272.3 430 299.7 412 327 402.7C354.3 393.3 381.7 392.7 409 397.8C436.3 403 463.7 414 491 427.8C518.3 441.7 545.7 458.3 573 452.2C600.3 446 627.7 417 654.8 406.8C682 396.7 709 405.3 736.2 410.7C763.3 416 790.7 418 818 416.3C845.3 414.7 872.7 409.3 886.3 406.7L900 404L900 601L886.3 601C872.7 601 845.3 601 818 601C790.7 601 763.3 601 736.2 601C709 601 682 601 654.8 601C627.7 601 600.3 601 573 601C545.7 601 518.3 601 491 601C463.7 601 436.3 601 409 601C381.7 601 354.3 601 327 601C299.7 601 272.3 601 245.2 601C218 601 191 601 163.8 601C136.7 601 109.3 601 82 601C54.7 601 27.3 601 13.7 601L0 601Z" fill="#78cd3e"></path><path d="M0 502L13.7 502.8C27.3 503.7 54.7 505.3 82 504.3C109.3 503.3 136.7 499.7 163.8 503.5C191 507.3 218 518.7 245.2 515.3C272.3 512 299.7 494 327 493.8C354.3 493.7 381.7 511.3 409 521.2C436.3 531 463.7 533 491 533.2C518.3 533.3 545.7 531.7 573 528.7C600.3 525.7 627.7 521.3 654.8 516.2C682 511 709 505 736.2 508.8C763.3 512.7 790.7 526.3 818 523.5C845.3 520.7 872.7 501.3 886.3 491.7L900 482L900 601L886.3 601C872.7 601 845.3 601 818 601C790.7 601 763.3 601 736.2 601C709 601 682 601 654.8 601C627.7 601 600.3 601 573 601C545.7 601 518.3 601 491 601C463.7 601 436.3 601 409 601C381.7 601 354.3 601 327 601C299.7 601 272.3 601 245.2 601C218 601 191 601 163.8 601C136.7 601 109.3 601 82 601C54.7 601 27.3 601 13.7 601L0 601Z" fill="#91c724"></path></svg>