<svg id="visual" viewBox="0 0 900 600" width="900" height="600" xmlns="http://www.w3.org/2000/svg" xmlns:xlink="http://www.w3.org/1999/xlink" version="1.1"><path d="M0 410L13.7 397.8C27.3 385.7 54.7 361.3 82 364.5C109.3 367.7 136.7 398.3 163.8 398C191 397.7 218 366.3 245.2 358.5C272.3 350.7 299.7 366.3 327 373C354.3 379.7 381.7 377.3 409 378.7C436.3 380 463.7 385 491 381.8C518.3 378.7 545.7 367.3 573 368.7C600.3 370 627.7 384 654.8 390C682 396 709 394 736.2 390.5C763.3 387 790.7 382 818 370.5C845.3 359 872.7 341 886.3 332L900 323L900 601L886.3 601C872.7 601 845.3 601 818 601C790.7 601 763.3 601 736.2 601C709 601 682 601 654.8 601C627.7 601 600.3 601 573 601C545.7 601 518.3 601 491 601C463.7 601 436.3 601 409 601C381.7 601 354.3 601 327 601C299.7 601 272.3 601 245.2 601C218 601 191 601 163.8 601C136.7 601 109.3 601 82 601C54.7 601 27.3 601 13.7 601L0 601Z" fill="#59d256"></path><path d="M0 453L13.7 447.8C27.3 442.7 54.7 432.3 82 428C109.3 423.7 136.7 425.3 163.8 427C191 428.7 218 430.3 245.2 428C272.3 425.7 299.7 419.3 327 427.8C354.3 436.3 381.7 459.7 409 458.5C436.3 457.3 463.7 431.7 491 427.3C518.3 423 545.7 440 573 447C600.3 454 627.7 451 654.8 440.5C682 430 709 412 736.2 413.8C763.3 415.7 790.7 437.3 818 441C845.3 444.7 872.7 430.3 886.3 423.2L900 416L900 601L886.3 601C872.7 601 845.3 601 818 601C790.7 601 763.3 601 736.2 601C709 601 682 601 654.8 601C627.7 601 600.3 601 573 601C545.7 601 518.3 601 491 601C463.7 601 436.3 601 409 601C381.7 601 354.3 601 327 601C299.7 601 272.3 601 245.2 601C218 601 191 601 163.8 601C136.7 601 109.3 601 82 601C54.7 601 27.3 601 13.7 601L0 601Z" fill="#3c8a3d"></path><path d="M0 539L13.7 540.7C27.3 542.3 54.7 545.7 82 537.8C109.3 530 136.7 511 163.8 498.5C191 486 218 480 245.2 483.3C272.3 486.7 299.7 499.3 327 508.8C354.3 518.3 381.7 524.7 409 522.7C436.3 520.7 463.7 510.3 491 509.8C518.3 509.3 545.7 518.7 573 516.2C600.3 513.7 627.7 499.3 654.8 495.5C682 491.7 709 498.3 736.2 496.7C763.3 495 790.7 485 818 482.3C845.3 479.7 872.7 484.3 886.3 486.7L900 489L900 601L886.3 601C872.7 601 845.3 601 818 601C790.7 601 763.3 601 736.2 601C709 601 682 601 654.8 601C627.7 601 600.3 601 573 601C545.7 601 518.3 601 491 601C463.7 601 436.3 601 409 601C381.7 601 354.3 601 327 601C299.7 601 272.3 601 245.2 601C218 601 191 601 163.8 601C136.7 601 109.3 601 82 601C54.7 601 27.3 601 13.7 601L0 601Z" fill="#234824"></path></svg>